<svg width="342" height="80" viewBox="0 0 342 80" fill="none" xmlns="http://www.w3.org/2000/svg">
<path d="M122.932 42.504H118.072C117.532 45.204 115.732 46.932 112.6 46.932C108.028 46.932 106.048 43.548 106.048 38.76C106.048 33.828 108.1 30.552 112.744 30.552C115.12 30.552 116.74 31.452 117.568 33.216C118.036 34.188 118.828 34.692 119.908 34.692H122.932C122.68 32.028 121.708 29.904 119.98 28.356C118.144 26.844 115.732 26.124 112.744 26.124C105.004 26.124 101.044 30.876 101.044 38.76C101.044 46.392 104.788 51.36 112.312 51.36C118.504 51.36 122.464 48.156 122.932 42.504ZM133.838 31.668C128.078 31.668 125.198 34.944 125.198 41.568C125.198 48.12 128.078 51.432 133.838 51.432C139.598 51.432 142.514 48.12 142.514 41.568C142.514 34.944 139.598 31.668 133.838 31.668ZM133.838 35.88C136.286 35.88 137.51 37.716 137.51 41.424C137.474 45.204 136.25 47.148 133.802 47.148C131.354 47.148 130.094 45.276 130.058 41.568C130.058 37.788 131.318 35.88 133.838 35.88ZM153.603 35.952C156.195 35.952 157.527 37.752 157.635 41.424C157.635 45.276 156.267 47.22 153.531 47.22C150.795 47.22 149.499 45.276 149.535 41.424C149.679 37.752 151.011 35.952 153.603 35.952ZM160.011 26.52H157.635V34.62C156.411 32.64 154.575 31.668 152.199 31.668C147.123 31.848 144.603 35.16 144.603 41.64C144.603 47.976 147.555 51.18 153.459 51.288C159.399 51.324 162.387 48.48 162.387 42.756V28.932C162.387 27.636 161.307 26.52 160.011 26.52ZM181.353 45.168H177.825C177.177 45.168 176.637 45.384 176.205 45.852C175.269 46.752 174.225 47.22 173.109 47.22C170.769 47.22 169.509 45.744 169.329 42.828H181.641C182.001 35.376 179.157 31.668 173.109 31.668C167.313 31.704 164.397 34.944 164.397 41.424C164.397 47.904 167.277 51.252 173.037 51.432C177.717 51.432 180.309 49.2 181.353 45.168ZM173.037 35.592C175.089 35.592 176.277 36.888 176.565 39.408H169.401C169.761 36.888 170.985 35.592 173.037 35.592ZM212.982 35.952C215.574 35.952 216.906 37.752 217.014 41.424C217.014 45.276 215.646 47.22 212.91 47.22C210.174 47.22 208.878 45.276 208.914 41.424C209.058 37.752 210.39 35.952 212.982 35.952ZM219.39 26.52H217.014V34.62C215.79 32.64 213.954 31.668 211.578 31.668C206.502 31.848 203.982 35.16 203.982 41.64C203.982 47.976 206.934 51.18 212.838 51.288C218.778 51.324 221.766 48.48 221.766 42.756V28.932C221.766 27.636 220.686 26.52 219.39 26.52ZM239.94 31.956H237.492C235.908 31.956 235.152 32.748 235.188 34.332V44.376C235.188 46.5 234.108 47.544 231.948 47.544C229.788 47.544 228.708 46.5 228.708 44.376V31.956H223.92V43.404C223.92 46.608 224.748 48.696 226.404 49.74C228.06 50.82 229.824 51.36 231.804 51.36C233.856 51.36 235.728 50.856 237.42 49.884C239.112 48.84 239.94 46.68 239.94 43.404V31.956ZM258.838 45.168H255.238C254.626 45.168 254.086 45.384 253.618 45.852C252.826 46.752 251.854 47.22 250.738 47.22C248.074 47.256 246.742 45.348 246.742 41.568C246.742 37.788 248.002 35.88 250.522 35.88C252.034 35.88 253.042 36.564 253.618 37.86H258.838C258.01 33.72 255.274 31.668 250.666 31.668C244.798 31.776 241.882 35.052 241.882 41.568C242.026 48.12 244.978 51.432 250.738 51.432C255.166 51.54 257.974 49.056 258.838 45.168ZM268.058 47.472C266.546 47.472 265.754 46.752 265.646 45.24C265.646 43.836 266.618 42.936 268.526 42.576C269.93 42.288 271.226 41.892 272.342 41.424V43.188C272.342 45.888 270.722 47.472 268.058 47.472ZM269.174 35.592C271.154 35.592 272.162 36.132 272.27 37.212C272.27 38.256 271.226 38.868 269.174 39.12C264.35 39.588 261.038 40.812 260.93 45.384C260.93 49.596 264.098 51.72 268.67 51.36C273.818 51 276.986 48.66 276.986 43.404V36.924C276.878 33.396 274.214 31.668 268.958 31.668C264.566 31.668 262.082 33.396 261.506 36.924H266.294C266.546 36.024 267.482 35.592 269.174 35.592ZM287.662 33V31.956H284.782V28.932C284.782 27.672 283.738 26.52 282.478 26.52H279.994V47.328C279.958 49.452 280.822 50.568 282.622 50.748C284.422 50.928 286.114 50.928 287.662 50.784V47.148H286.186C285.25 47.148 284.782 46.716 284.782 45.924V35.376H285.286C286.618 35.376 287.662 34.368 287.662 33ZM290.365 26.52V30.264H295.153V28.86C295.189 27.312 294.433 26.52 292.849 26.52H290.365ZM290.365 31.956V51H295.153V34.26C295.153 32.712 294.397 31.956 292.849 31.956H290.365ZM306.35 31.668C300.59 31.668 297.71 34.944 297.71 41.568C297.71 48.12 300.59 51.432 306.35 51.432C312.11 51.432 315.026 48.12 315.026 41.568C315.026 34.944 312.11 31.668 306.35 31.668ZM306.35 35.88C308.798 35.88 310.022 37.716 310.022 41.424C309.986 45.204 308.762 47.148 306.314 47.148C303.866 47.148 302.606 45.276 302.57 41.568C302.57 37.788 303.83 35.88 306.35 35.88ZM333.566 51V39.804C333.602 34.368 330.938 31.668 325.502 31.668C320.066 31.668 317.33 34.368 317.33 39.804V51H322.19V38.832C322.226 36.852 323.306 35.88 325.43 35.88C327.554 35.88 328.634 36.852 328.742 38.832V48.624C328.742 50.136 329.534 50.892 331.118 51H333.566ZM337.265 47.22C336.221 47.22 335.717 47.688 335.717 48.624V51H339.785V47.22H337.265Z" fill="#112D4E"/>
<path d="M184.021 51H201.733V46.5H188.953V40.164H195.901C197.665 40.164 198.529 39.336 198.493 37.644V36.024H188.953V30.768H201.733V26.52H186.541C184.849 26.556 184.021 27.456 184.021 29.148V51Z" fill="#FFC42D"/>
<rect width="80" height="80" rx="18" fill="#112D4E"/>
<path d="M21.466 40.752H19.036C18.766 42.102 17.866 42.966 16.3 42.966C14.014 42.966 13.024 41.274 13.024 38.88C13.024 36.414 14.05 34.776 16.372 34.776C17.56 34.776 18.37 35.226 18.784 36.108C19.018 36.594 19.414 36.846 19.954 36.846H21.466C21.34 35.514 20.854 34.452 19.99 33.678C19.072 32.922 17.866 32.562 16.372 32.562C12.502 32.562 10.522 34.938 10.522 38.88C10.522 42.696 12.394 45.18 16.156 45.18C19.252 45.18 21.232 43.578 21.466 40.752ZM26.919 35.334C24.039 35.334 22.599 36.972 22.599 40.284C22.599 43.56 24.039 45.216 26.919 45.216C29.799 45.216 31.257 43.56 31.257 40.284C31.257 36.972 29.799 35.334 26.919 35.334ZM26.919 37.44C28.143 37.44 28.755 38.358 28.755 40.212C28.737 42.102 28.125 43.074 26.901 43.074C25.677 43.074 25.047 42.138 25.029 40.284C25.029 38.394 25.659 37.44 26.919 37.44ZM36.8013 37.476C38.0973 37.476 38.7633 38.376 38.8173 40.212C38.8173 42.138 38.1333 43.11 36.7653 43.11C35.3973 43.11 34.7493 42.138 34.7673 40.212C34.8393 38.376 35.5053 37.476 36.8013 37.476ZM40.0053 32.76H38.8173V36.81C38.2053 35.82 37.2873 35.334 36.0993 35.334C33.5613 35.424 32.3013 37.08 32.3013 40.32C32.3013 43.488 33.7773 45.09 36.7293 45.144C39.6993 45.162 41.1933 43.74 41.1933 40.878V33.966C41.1933 33.318 40.6533 32.76 40.0053 32.76ZM56.8228 37.476C58.1188 37.476 58.7848 38.376 58.8388 40.212C58.8388 42.138 58.1548 43.11 56.7868 43.11C55.4188 43.11 54.7708 42.138 54.7888 40.212C54.8608 38.376 55.5268 37.476 56.8228 37.476ZM60.0268 32.76H58.8388V36.81C58.2268 35.82 57.3088 35.334 56.1208 35.334C53.5828 35.424 52.3228 37.08 52.3228 40.32C52.3228 43.488 53.7988 45.09 56.7508 45.144C59.7208 45.162 61.2148 43.74 61.2148 40.878V33.966C61.2148 33.318 60.6748 32.76 60.0268 32.76ZM70.3021 35.478H69.0781C68.2861 35.478 67.9081 35.874 67.9261 36.666V41.688C67.9261 42.75 67.3861 43.272 66.3061 43.272C65.2261 43.272 64.6861 42.75 64.6861 41.688V35.478H62.2921V41.202C62.2921 42.804 62.7061 43.848 63.5341 44.37C64.3621 44.91 65.2441 45.18 66.2341 45.18C67.2601 45.18 68.1961 44.928 69.0421 44.442C69.8881 43.92 70.3021 42.84 70.3021 41.202V35.478Z" fill="white"/>
<path d="M42.3426 45H51.1986V42.75H44.8086V39.582H48.2826C49.1646 39.582 49.5966 39.168 49.5786 38.322V37.512H44.8086V34.884H51.1986V32.76H43.6026C42.7566 32.778 42.3426 33.228 42.3426 34.074V45Z" fill="#FFC42D"/>
</svg>
