<svg width="80" height="80" viewBox="0 0 80 80" fill="none" xmlns="http://www.w3.org/2000/svg">
<rect width="80" height="80" rx="18" fill="#112D4E"/>
<path d="M21.466 40.752H19.036C18.766 42.102 17.866 42.966 16.3 42.966C14.014 42.966 13.024 41.274 13.024 38.88C13.024 36.414 14.05 34.776 16.372 34.776C17.56 34.776 18.37 35.226 18.784 36.108C19.018 36.594 19.414 36.846 19.954 36.846H21.466C21.34 35.514 20.854 34.452 19.99 33.678C19.072 32.922 17.866 32.562 16.372 32.562C12.502 32.562 10.522 34.938 10.522 38.88C10.522 42.696 12.394 45.18 16.156 45.18C19.252 45.18 21.232 43.578 21.466 40.752ZM26.919 35.334C24.039 35.334 22.599 36.972 22.599 40.284C22.599 43.56 24.039 45.216 26.919 45.216C29.799 45.216 31.257 43.56 31.257 40.284C31.257 36.972 29.799 35.334 26.919 35.334ZM26.919 37.44C28.143 37.44 28.755 38.358 28.755 40.212C28.737 42.102 28.125 43.074 26.901 43.074C25.677 43.074 25.047 42.138 25.029 40.284C25.029 38.394 25.659 37.44 26.919 37.44ZM36.8013 37.476C38.0973 37.476 38.7633 38.376 38.8173 40.212C38.8173 42.138 38.1333 43.11 36.7653 43.11C35.3973 43.11 34.7493 42.138 34.7673 40.212C34.8393 38.376 35.5053 37.476 36.8013 37.476ZM40.0053 32.76H38.8173V36.81C38.2053 35.82 37.2873 35.334 36.0993 35.334C33.5613 35.424 32.3013 37.08 32.3013 40.32C32.3013 43.488 33.7773 45.09 36.7293 45.144C39.6993 45.162 41.1933 43.74 41.1933 40.878V33.966C41.1933 33.318 40.6533 32.76 40.0053 32.76ZM56.8228 37.476C58.1188 37.476 58.7848 38.376 58.8388 40.212C58.8388 42.138 58.1548 43.11 56.7868 43.11C55.4188 43.11 54.7708 42.138 54.7888 40.212C54.8608 38.376 55.5268 37.476 56.8228 37.476ZM60.0268 32.76H58.8388V36.81C58.2268 35.82 57.3088 35.334 56.1208 35.334C53.5828 35.424 52.3228 37.08 52.3228 40.32C52.3228 43.488 53.7988 45.09 56.7508 45.144C59.7208 45.162 61.2148 43.74 61.2148 40.878V33.966C61.2148 33.318 60.6748 32.76 60.0268 32.76ZM70.3021 35.478H69.0781C68.2861 35.478 67.9081 35.874 67.9261 36.666V41.688C67.9261 42.75 67.3861 43.272 66.3061 43.272C65.2261 43.272 64.6861 42.75 64.6861 41.688V35.478H62.2921V41.202C62.2921 42.804 62.7061 43.848 63.5341 44.37C64.3621 44.91 65.2441 45.18 66.2341 45.18C67.2601 45.18 68.1961 44.928 69.0421 44.442C69.8881 43.92 70.3021 42.84 70.3021 41.202V35.478Z" fill="white"/>
<path d="M42.3426 45H51.1986V42.75H44.8086V39.582H48.2826C49.1646 39.582 49.5966 39.168 49.5786 38.322V37.512H44.8086V34.884H51.1986V32.76H43.6026C42.7566 32.778 42.3426 33.228 42.3426 34.074V45Z" fill="#FFC42D"/>
</svg>
