<svg width="239" height="26" viewBox="0 0 239 26" fill="none" xmlns="http://www.w3.org/2000/svg">
<path d="M21.932 16.504H17.072C16.532 19.204 14.732 20.932 11.6 20.932C7.028 20.932 5.048 17.548 5.048 12.76C5.048 7.828 7.1 4.552 11.744 4.552C14.12 4.552 15.74 5.452 16.568 7.216C17.036 8.188 17.828 8.692 18.908 8.692H21.932C21.68 6.028 20.708 3.904 18.98 2.356C17.144 0.844 14.732 0.123998 11.744 0.123998C4.004 0.123998 0.044 4.876 0.044 12.76C0.044 20.392 3.788 25.36 11.312 25.36C17.504 25.36 21.464 22.156 21.932 16.504ZM32.838 5.668C27.078 5.668 24.198 8.944 24.198 15.568C24.198 22.12 27.078 25.432 32.838 25.432C38.598 25.432 41.514 22.12 41.514 15.568C41.514 8.944 38.598 5.668 32.838 5.668ZM32.838 9.88C35.286 9.88 36.51 11.716 36.51 15.424C36.474 19.204 35.25 21.148 32.802 21.148C30.354 21.148 29.094 19.276 29.058 15.568C29.058 11.788 30.318 9.88 32.838 9.88ZM52.6026 9.952C55.1946 9.952 56.5266 11.752 56.6346 15.424C56.6346 19.276 55.2666 21.22 52.5306 21.22C49.7946 21.22 48.4986 19.276 48.5346 15.424C48.6786 11.752 50.0106 9.952 52.6026 9.952ZM59.0106 0.52H56.6346V8.62C55.4106 6.64 53.5746 5.668 51.1986 5.668C46.1226 5.848 43.6026 9.16 43.6026 15.64C43.6026 21.976 46.5546 25.18 52.4586 25.288C58.3986 25.324 61.3866 22.48 61.3866 16.756V2.932C61.3866 1.636 60.3066 0.52 59.0106 0.52ZM80.3533 19.168H76.8253C76.1773 19.168 75.6373 19.384 75.2053 19.852C74.2693 20.752 73.2253 21.22 72.1093 21.22C69.7693 21.22 68.5093 19.744 68.3293 16.828H80.6413C81.0013 9.376 78.1573 5.668 72.1093 5.668C66.3133 5.704 63.3973 8.944 63.3973 15.424C63.3973 21.904 66.2773 25.252 72.0373 25.432C76.7173 25.432 79.3093 23.2 80.3533 19.168ZM72.0373 9.592C74.0893 9.592 75.2773 10.888 75.5653 13.408H68.4013C68.7613 10.888 69.9853 9.592 72.0373 9.592ZM111.982 9.952C114.574 9.952 115.906 11.752 116.014 15.424C116.014 19.276 114.646 21.22 111.91 21.22C109.174 21.22 107.878 19.276 107.914 15.424C108.058 11.752 109.39 9.952 111.982 9.952ZM118.39 0.52H116.014V8.62C114.79 6.64 112.954 5.668 110.578 5.668C105.502 5.848 102.982 9.16 102.982 15.64C102.982 21.976 105.934 25.18 111.838 25.288C117.778 25.324 120.766 22.48 120.766 16.756V2.932C120.766 1.636 119.686 0.52 118.39 0.52ZM138.94 5.956H136.492C134.908 5.956 134.152 6.748 134.188 8.332V18.376C134.188 20.5 133.108 21.544 130.948 21.544C128.788 21.544 127.708 20.5 127.708 18.376V5.956H122.92V17.404C122.92 20.608 123.748 22.696 125.404 23.74C127.06 24.82 128.824 25.36 130.804 25.36C132.856 25.36 134.728 24.856 136.42 23.884C138.112 22.84 138.94 20.68 138.94 17.404V5.956ZM157.838 19.168H154.238C153.626 19.168 153.086 19.384 152.618 19.852C151.826 20.752 150.854 21.22 149.738 21.22C147.074 21.256 145.742 19.348 145.742 15.568C145.742 11.788 147.002 9.88 149.522 9.88C151.034 9.88 152.042 10.564 152.618 11.86H157.838C157.01 7.72 154.274 5.668 149.666 5.668C143.798 5.776 140.882 9.052 140.882 15.568C141.026 22.12 143.978 25.432 149.738 25.432C154.166 25.54 156.974 23.056 157.838 19.168ZM167.058 21.472C165.546 21.472 164.754 20.752 164.646 19.24C164.646 17.836 165.618 16.936 167.526 16.576C168.93 16.288 170.226 15.892 171.342 15.424V17.188C171.342 19.888 169.722 21.472 167.058 21.472ZM168.174 9.592C170.154 9.592 171.162 10.132 171.27 11.212C171.27 12.256 170.226 12.868 168.174 13.12C163.35 13.588 160.038 14.812 159.93 19.384C159.93 23.596 163.098 25.72 167.67 25.36C172.818 25 175.986 22.66 175.986 17.404V10.924C175.878 7.396 173.214 5.668 167.958 5.668C163.566 5.668 161.082 7.396 160.506 10.924H165.294C165.546 10.024 166.482 9.592 168.174 9.592ZM186.662 7V5.956H183.782V2.932C183.782 1.672 182.738 0.52 181.478 0.52H178.994V21.328C178.958 23.452 179.822 24.568 181.622 24.748C183.422 24.928 185.114 24.928 186.662 24.784V21.148H185.186C184.25 21.148 183.782 20.716 183.782 19.924V9.376H184.286C185.618 9.376 186.662 8.368 186.662 7ZM189.365 0.52V4.264H194.153V2.86C194.189 1.312 193.433 0.52 191.849 0.52H189.365ZM189.365 5.956V25H194.153V8.26C194.153 6.712 193.397 5.956 191.849 5.956H189.365ZM205.35 5.668C199.59 5.668 196.71 8.944 196.71 15.568C196.71 22.12 199.59 25.432 205.35 25.432C211.11 25.432 214.026 22.12 214.026 15.568C214.026 8.944 211.11 5.668 205.35 5.668ZM205.35 9.88C207.798 9.88 209.022 11.716 209.022 15.424C208.986 19.204 207.762 21.148 205.314 21.148C202.866 21.148 201.606 19.276 201.57 15.568C201.57 11.788 202.83 9.88 205.35 9.88ZM232.566 25V13.804C232.602 8.368 229.938 5.668 224.502 5.668C219.066 5.668 216.33 8.368 216.33 13.804V25H221.19V12.832C221.226 10.852 222.306 9.88 224.43 9.88C226.554 9.88 227.634 10.852 227.742 12.832V22.624C227.742 24.136 228.534 24.892 230.118 25H232.566ZM236.265 21.22C235.221 21.22 234.717 21.688 234.717 22.624V25H238.785V21.22H236.265Z" fill="#112D4E"/>
<path d="M83.0212 25H100.733V20.5H87.9532V14.164H94.9012C96.6652 14.164 97.5292 13.336 97.4932 11.644V10.024H87.9532V4.768H100.733V0.52H85.5412C83.8492 0.555999 83.0212 1.456 83.0212 3.148V25Z" fill="#FFC42D"/>
</svg>
